# AST/ASF file generated using VICON BodyLanguage
# -----------------------------------------------
:version 1.10
:name VICON
:units
  mass 1.0
  length 0.45
  angle deg
:documentation
   .ast/.asf automatically generated from VICON data using
   VICON BodyBuilder and BodyLanguage model FoxedUp or BRILLIANT.MOD
:root
   order TX TY TZ RX RY RZ
   axis XYZ
   position 0 0 0  
   orientation 0 0 0 
:bonedata
  begin
     id 1 
     name lhipjoint
     direction 0.577973 -0.728611 0.367523 
     length 2.48544 
     axis 0 0 0  XYZ
  end
  begin
     id 2 
     name lfemur
     direction 0.34202 -0.939693 0  
     length 7.1921  
     axis 0 0 20  XYZ
    dof rx ry rz
    limits (-160.0 20.0)
           (-70.0 70.0)
           (-60.0 70.0)
  end
  begin
     id 3 
     name ltibia
     direction 0.34202 -0.939693 0   
     length 7.71059   
     axis 0 0 20   XYZ
    dof rx
    limits (-10.0 170.0)
  end
  begin
     id 4 
     name lfoot
     direction 0.089538 -0.246004 0.965124   
     length 2.19909   
     axis -90 7.62852e-016 20   XYZ
    dof rx rz
    limits (-45.0 90.0)
           (-70.0 20.0)
  end
  begin
     id 5 
     name ltoes
     direction 1.53544e-011 -4.21829e-011 1   
     length 1.10116   
     axis -90 7.62852e-016 20   XYZ
    dof rx
    limits (-90.0 20.0)
  end
  begin
     id 6 
     name rhipjoint
     direction -0.554414 -0.743062 0.374812   
     length 2.4371  
     axis 0 0 0  XYZ 
  end
  begin
     id 7 
     name rfemur
     direction -0.34202 -0.939693 0   
     length 7.47254   
     axis 0 0 -20   XYZ
    dof rx ry rz
    limits (-160.0 20.0)
           (-70.0 70.0)
           (-70.0 60.0)
  end
  begin
     id 8 
     name rtibia
     direction -0.34202 -0.939693 0   
     length 7.65855   
     axis 0 0 -20   XYZ
    dof rx
    limits (-10.0 170.0)
 end
 begin
     id 9 
     name rfoot
     direction -0.133779 -0.367555 0.92033   
     length 2.43006  
     axis -90 -7.62852e-016 -20   XYZ
    dof rx rz
    limits (-45.0 90.0)
           (-20.0 70.0)
  end
  begin
     id 10 
     name rtoes
     direction -1.53563e-011 -4.21889e-011 1   
     length 1.19625   
     axis -90 -7.62852e-016 -20   XYZ
    dof rx
    limits (-90.0 20.0)
  end
  begin
     id 11 
     name lowerback
     direction 0.0249066 0.998043 -0.0573585   
     length 2.08485   
     axis 0 0 0   XYZ
    dof rx ry rz
    limits (-20.0 45.0)
           (-30.0 30.0)
           (-30.0 30.0)
  end
  begin
     id 12 
     name upperback
     direction 0.0237884 0.999673 0.00943178   
     length 2.08515   
     axis 0 0 0   XYZ
    dof rx ry rz
    limits (-20.0 45.0)
           (-30.0 30.0)
           (-30.0 30.0)
  end
  begin
     id 13 
     name thorax
     direction 0.0106671 0.999301 0.0358174   
     length 2.09037   
     axis 0 0 0   XYZ
    dof rx ry rz
    limits (-20.0 45.0)
           (-30.0 30.0)
           (-30.0 30.0)
  end
  begin
     id 14 
     name lowerneck
     direction -0.0580016 0.987052 0.149546   
     length 1.84454   
     axis 0 0 0   XYZ
    dof rx ry rz
    limits (-20.0 45.0)
           (-30.0 30.0)
           (-30.0 30.0)
  end
  begin
     id 15 
     name upperneck
     direction 0.079456 0.981963 -0.171567   
     length 1.88141   
     axis 0 0 0   XYZ
    dof rx ry rz
    limits (-20.0 45.0)
           (-30.0 30.0)
           (-30.0 30.0)
  end
  begin
     id 16
     name head
     direction 0.0262167 0.9967 -0.0768276  
     length 1.89541  
     axis 0 0 0   XYZ
    dof rx ry rz
    limits (-20.0 45.0)
           (-30.0 30.0)
           (-30.0 30.0)
  end
  begin
     id 17 
     name lclavicle
     direction 0.946135 0.322134 -0.0325326  
     length 3.949  
     axis 0 0 0   XYZ
    dof ry rz
    limits (-20.0 10.0)
           (0.0 20.0)
  end
  begin
     id 18 
     name lhumerus
     direction 1 -4.48964e-011 1.94005e-028   
     length 5.10995   
     axis 180 -30 -90   XYZ
    dof rx ry rz
    limits (-60.0 90.0)
           (-90.0 90.0)
           (-90.0 90.0)
  end
  begin
     id 19
     name lradius
     direction 1 -4.48976e-011 2.87852e-027   
     length 3.21207   
     axis 180 -30 -90   XYZ
    dof rx
    limits (-10.0 170.0)
  end
  begin
     id 20
     name lwrist
     direction 1 -4.48963e-011 1.9975e-027   
     length 1.60604   
     axis 2.96054e-016 90 90   XYZ
    dof ry
    limits (-180.0 0.0)
 end
  begin
     id 21 
     name lhand
     direction 1 -4.48919e-011 4.00227e-027   
     length 0.63349   
     axis -2.5488e-015 90 90   XYZ
    dof rx rz
    limits (-90.0 90.0)
           (-45.0 45.0)
  end
  begin
     id 22 
     name lfingers
     direction 1 -4.49037e-011 7.9652e-027   
     length 0.510736   
     axis -5.0975e-015 90 90   XYZ
    dof rx
    limits (0.0 90.0)
  end
  begin
     id 23
     name lthumb
     direction 0.707107 -6.34922e-011 0.707107   
     length 0.733318   
     axis -90 45 -4.48553e-014   XYZ
    dof rx rz
    limits (-45.0 45.0)
           (-45.0 45.0)
  end
  begin
     id 24 
     name rclavicle
     direction -0.940085 0.328911 -0.0897654   
     length 3.93848  
     axis 0 0 0   XYZ 
    dof ry rz
    limits (-10.0 20.0)
           (-20.0 0.0)
  end
  begin
     id 25 
     name rhumerus
     direction -1 -4.48958e-011 3.02044e-027  
     length 5.25109   
     axis 180 30 90   XYZ
    dof rx ry rz
    limits (-90.0 60.0)
           (-90.0 90.0)
           (-90.0 90.0)
  end
  begin
     id 26 
     name rradius
     direction -1 -4.4897e-011 9.78352e-028   
     length 3.28364   
     axis 180 30 90   XYZ
    dof rx
    limits (-10.0 170.0)
  end
  begin
     id 27 
     name rwrist
     direction -1 -4.48943e-011 1.99918e-027   
     length 1.64182   
     axis 2.96054e-016 -90 -90   XYZ
    dof ry
    limits (-180.0 0.0)
  end
  begin
     id 28
     name rhand
     direction -1 -4.49024e-011 3.98478e-027   
     length 0.599745   
     axis -2.5488e-015 -90 -90   XYZ
    dof rx rz
    limits (-90.0 90.0)
           (-45.0 45.0)
  end
  begin
     id 29
     name rfingers
     direction -1 -4.48914e-011 8.00621e-027   
     length 0.48353   
     axis -5.0975e-015 -90 -90   XYZ
    dof rx
    limits (0.0 90.0)
  end
  begin
     id 30
     name rthumb
     direction -0.707107 -6.34992e-011 0.707107   
     length 0.694255   
     axis -90 -45 4.48553e-014   XYZ
    dof rx rz
    limits (-45.0 45.0)
           (-45.0 45.0)
  end
:hierarchy
  begin
    root lhipjoint rhipjoint lowerback
    lhipjoint lfemur
    lfemur ltibia
    ltibia lfoot
    lfoot ltoes
    rhipjoint rfemur
    rfemur rtibia
    rtibia rfoot
    rfoot rtoes
    lowerback upperback
    upperback thorax
    thorax lowerneck lclavicle rclavicle
    lowerneck upperneck
    upperneck head
    lclavicle lhumerus
    lhumerus lradius
    lradius lwrist
    lwrist lhand lthumb
    lhand lfingers
    rclavicle rhumerus
    rhumerus rradius
    rradius rwrist
    rwrist rhand rthumb
    rhand rfingers
  end

#!OML:ASF E:\CV Data\Top Level 1\Subject 1\Session 1\player.ASF
:FULLY-SPECIFIED
:DEGREES
719
root 6.33793 17.1713 -9.17303 63.2062 -83.5528 -61.7965
lowerback 6.73013 3.00313 3.77517
upperback -0.295124 4.34501 1.62129
thorax -3.92166 2.08377 -0.862433
lowerneck -15.0668 12.8483 -2.11215
upperneck 18.3498 17.5157 2.85454
head 7.65925 8.4381 3.09255
rclavicle -2.43496e-014 -2.04003e-014
rhumerus 136.866 141.583 74.6954
rradius 96.2161
rwrist -13.7574
rhand -29.7986 22.9027
rfingers 7.12502
rthumb -3.12299 -7.05413
lclavicle -2.43496e-014 -2.04003e-014
lhumerus -40.3087 -38.3573 111.218
lradius 92.6629
lwrist 31.2767
lhand -23.3339 16.7184
lfingers 7.12502
lthumb 3.12066 46.6753
rfemur -18.1343 7.1648 28.485
rtibia 39.625
rfoot -21.5173 -4.63948
rtoes 11.8766
lfemur -20.8134 0.0244379 -12.0581
ltibia 40.2444
lfoot -19.2419 -2.556
ltoes -2.95422
720
root 6.31842 17.1697 -9.16134 65.9778 -83.7026 -64.6605
lowerback 6.65943 2.97194 3.82988
upperback -0.270063 4.30358 1.65765
thorax -3.85634 2.06372 -0.846331
lowerneck -14.9922 12.9602 -2.07752
upperneck 18.4349 17.6598 2.86168
head 7.67289 8.50704 3.10242
rclavicle -1.77765e-014 6.60959e-015
rhumerus 136.862 141.561 74.7649
rradius 96.3413
rwrist -13.5953
rhand -29.8776 22.877
rfingers 7.12502
rthumb -3.19921 -7.0787
lclavicle -1.77765e-014 6.60959e-015
lhumerus -40.3716 -38.4335 111.291
lradius 92.6583
lwrist 31.2049
lhand -23.3111 16.5686
lfingers 7.12502
lthumb 3.14271 46.5252
rfemur -17.9601 7.3385 28.4836
rtibia 39.6159
rfoot -21.5595 -4.5077
rtoes 11.807
lfemur -20.4872 0.287125 -12.1255
ltibia 40.1437
lfoot -19.0684 -2.5794
ltoes -1.73449
721
root 6.29888 17.1685 -9.14981 68.7257 -83.8433 -67.5027
lowerback 6.59733 2.93952 3.86109
upperback -0.251552 4.25934 1.69202
thorax -3.80434 2.04245 -0.819875
lowerneck -14.9115 13.0695 -2.03478
upperneck 18.5218 17.7994 2.86523
head 7.68738 8.57391 3.10939
rclavicle -2.27476e-014 -1.25079e-014
rhumerus 136.851 141.55 74.8266
rradius 96.4217
rwrist -13.2765
rhand -30.0257 22.8827
rfingers 7.12502
rthumb -3.3423 -7.07083
lclavicle -2.27476e-014 -1.25079e-014
lhumerus -40.462 -38.4685 111.404
lradius 92.6103
lwrist 30.9405
lhand -23.3872 16.4049
lfingers 7.12502
lthumb 3.06913 46.3626
rfemur -17.7878 7.51089 28.4688
rtibia 39.6155
rfoot -21.61 -4.38756
rtoes 11.7513
lfemur -20.1593 0.511317 -12.2154
ltibia 40.0057
lfoot -18.8661 -2.4626
ltoes -0.764749
722
root 6.27926 17.1678 -9.13867 71.4346 -83.9914 -70.2965
lowerback 6.52989 2.90506 3.85258
upperback -0.240328 4.20935 1.71979
thorax -3.75944 2.01899 -0.777784
lowerneck -14.8257 13.1774 -1.99041
upperneck 18.6086 17.9372 2.86518
head 7.7016 8.63967 3.1145
rclavicle 6.31829e-014 8.88319e-015
rhumerus 136.832 141.546 74.8763
rradius 96.4606
rwrist -12.8201
rhand -30.2235 22.8938
rfingers 7.12502
rthumb -3.53327 -7.05662
lclavicle 6.31829e-014 8.88319e-015
lhumerus -40.5658 -38.4587 111.541
lradius 92.5183
lwrist 30.5171
lhand -23.4917 16.2597
lfingers 7.12502
lthumb 2.96822 46.2188
rfemur -17.6312 7.68791 28.4244
rtibia 39.6266
rfoot -21.6678 -4.28304
rtoes 11.702
lfemur -19.8386 0.674314 -12.3399
ltibia 39.8481
lfoot -18.6419 -2.17661
ltoes -0.101322
723
root 6.25978 17.1679 -9.12795 74.0812 -84.1584 -73.0156
lowerback 6.45636 2.86849 3.8002
upperback -0.236579 4.1531 1.73338
thorax -3.72105 1.99314 -0.725463
lowerneck -14.7443 13.2822 -1.94967
upperneck 18.7019 18.0706 2.87208
head 7.71788 8.70353 3.12244
rclavicle -1.28426e-014 3.96327e-015
rhumerus 136.808 141.558 74.908
rradius 96.463
rwrist -12.2839
rhand -30.45 22.8999
rfingers 7.12502
rthumb -3.75198 -7.04679
lclavicle -1.28426e-014 3.96327e-015
lhumerus -40.6977 -38.4408 111.672
lradius 92.4222
lwrist 30.0194
lhand -23.6087 16.1368
lfingers 7.12502
lthumb 2.85529 46.0975
rfemur -17.4944 7.86515 28.3386
rtibia 39.6508
rfoot -21.7316 -4.19315
rtoes 11.6554
lfemur -19.5284 0.750958 -12.5035
ltibia 39.6875
lfoot -18.4219 -1.78895
ltoes 0.38514
724
root 6.24012 17.169 -9.11723 76.7449 -84.3487 -75.7394
lowerback 6.36516 2.83216 3.70929
upperback -0.233533 4.09332 1.73138
thorax -3.67496 1.96646 -0.666692
lowerneck -14.6762 13.3827 -1.91202
upperneck 18.7993 18.1981 2.88487
head 7.73715 8.76464 3.13331
rclavicle -6.47432e-014 3.37934e-015
rhumerus 136.79 141.597 74.9262
rradius 96.4292
rwrist -11.7281
rhand -30.6775 22.9098
rfingers 7.12502
rthumb -3.97168 -7.03297
lclavicle -6.47432e-014 3.37934e-015
lhumerus -40.8334 -38.4102 111.791
lradius 92.3172
lwrist 29.5089
lhand -23.7586 16.0536
lfingers 7.12502
lthumb 2.71048 46.0161
rfemur -17.3788 8.04323 28.2072
rtibia 39.691
rfoot -21.8028 -4.10883
rtoes 11.6222
lfemur -19.2264 0.73473 -12.7055
ltibia 39.5301
lfoot -18.2389 -1.36055
ltoes 0.756314
725
root 6.22076 17.1707 -9.1069 79.406 -84.5626 -78.4478
lowerback 6.26112 2.7966 3.58268
upperback -0.231374 4.03123 1.70979
thorax -3.62346 1.9394 -0.607558
lowerneck -14.6275 13.4754 -1.87998
upperneck 18.9019 18.3141 2.91128
head 7.75985 8.82104 3.14978
rclavicle -4.12742e-014 -3.27995e-015
rhumerus 136.785 141.677 74.9341
rradius 96.3705
rwrist -11.2089
rhand -30.869 22.8979
rfingers 7.12502
rthumb -4.15659 -7.04134
lclavicle -4.12742e-014 -3.27995e-015
lhumerus -40.9702 -38.3758 111.893
lradius 92.2102
lwrist 29.051
lhand -23.7058 15.9862
lfingers 7.12502
lthumb 2.76145 45.948
rfemur -17.2864 8.21927 28.0318
rtibia 39.749
rfoot -21.8808 -4.03432
rtoes 11.5971
lfemur -18.9378 0.668974 -12.9401
ltibia 39.3753
lfoot -18.1149 -0.97154
ltoes 1.05551
726
root 6.20178 17.1728 -9.09711 82.0963 -84.7951 -81.1732
lowerback 6.15094 2.76068 3.42778
upperback -0.234155 3.96654 1.66776
thorax -3.57393 1.91145 -0.553501
lowerneck -14.5925 13.5606 -1.85156
upperneck 19.0041 18.4174 2.95511
head 7.78294 8.87294 3.17183
rclavicle 1.03104e-014 2.28602e-015
rhumerus 136.783 141.803 74.9199
rradius 96.2939
rwrist -10.7625
rhand -31.0138 22.8585
rfingers 7.12502
rthumb -4.29644 -7.07791
lclavicle 1.03104e-014 2.28602e-015
lhumerus -41.1237 -38.3515 111.981
lradius 92.1173
lwrist 28.7022
lhand -23.7021 15.9658
lfingers 7.12502
lthumb 2.7651 45.9276
rfemur -17.2179 8.38965 27.8197
rtibia 39.8256
rfoot -21.9653 -3.96696
rtoes 11.5857
lfemur -18.665 0.592638 -13.1995
ltibia 39.2187
lfoot -18.0425 -0.63361
ltoes 1.23617
727
root 6.18347 17.1749 -9.08804 84.8307 -85.0316 -83.9327
lowerback 6.04363 2.72238 3.26213
upperback -0.243915 3.89841 1.60903
thorax -3.53264 1.8817 -0.510846
lowerneck -14.5688 13.6402 -1.82607
upperneck 19.1029 18.5103 3.01529
head 7.8051 8.92156 3.1989
rclavicle -6.67901e-014 -2.28105e-014
rhumerus 136.779 141.979 74.8798
rradius 96.2039
rwrist -10.393
rhand -31.1066 22.7878
rfingers 7.12502
rthumb -4.38603 -7.14678
lclavicle -6.67901e-014 -2.28105e-014
lhumerus -41.2961 -38.3424 112.058
lradius 92.0439
lwrist 28.4919
lhand -23.7824 15.9491
lfingers 7.12502
lthumb 2.68755 45.9119
rfemur -17.1719 8.55249 27.5887
rtibia 39.9194
rfoot -22.054 -3.90649
rtoes 11.5827
lfemur -18.4115 0.564133 -13.4661
ltibia 39.0586
lfoot -18.0042 -0.370155
ltoes 1.30485
728
root 6.16583 17.1766 -9.0804 87.6396 -85.2662 -86.7476
lowerback 5.92694 2.68414 3.07624
upperback -0.26149 3.82916 1.5425
thorax -3.49474 1.8516 -0.464734
lowerneck -14.5506 13.7126 -1.80699
upperneck 19.1891 18.5929 3.08418
head 7.82271 8.96626 3.22811
rclavicle 5.70714e-014 3.00662e-015
rhumerus 136.77 142.2 74.8248
rradius 96.1105
rwrist -10.0886
rhand -31.1482 22.6883
rfingers 7.12502
rthumb -4.42622 -7.24543
lclavicle 5.70714e-014 3.00662e-015
lhumerus -41.4781 -38.3468 112.131
lradius 91.9868
lwrist 28.4201
lhand -23.8951 15.9544
lfingers 7.12502
lthumb 2.57866 45.9185
rfemur -17.156 8.7126 27.3478
rtibia 40.0258
rfoot -22.1441 -3.85548
rtoes 11.5947
lfemur -18.1907 0.632946 -13.7278
ltibia 38.8958
lfoot -17.9906 -0.232796
ltoes 1.35245
729
root 6.14887 17.1779 -9.07385 90.6027 -85.4832 -89.7084
lowerback 5.81007 2.64801 2.8918
upperback -0.282683 3.76335 1.47395
thorax -3.45989 1.82303 -0.421972
lowerneck -14.5398 13.7785 -1.8014
upperneck 19.2661 18.6674 3.16263
head 7.83636 9.00761 3.26114
rclavicle -1.95446e-015 -4.32357e-015
rhumerus 136.753 142.466 74.7645
rradius 96.0222
rwrist -9.81938
rhand -31.1448 22.5729
rfingers 7.12502
rthumb -4.42296 -7.36089
lclavicle -1.95446e-015 -4.32357e-015
lhumerus -41.6814 -38.3553 112.222
lradius 91.9442
lwrist 28.4468
lhand -24.1389 15.9721
lfingers 7.12502
lthumb 2.34323 45.939
rfemur -17.1555 8.87201 27.1151
rtibia 40.1378
rfoot -22.2317 -3.81278
rtoes 11.6034
lfemur -17.9914 0.787964 -13.9693
ltibia 38.7339
lfoot -18.0014 -0.213803
ltoes 1.37281
